<mxfile host="app.diagrams.net" modified="2023-08-26T06:53:04.443Z" agent="Mozilla/5.0 (Macintosh; Intel Mac OS X 10_15_7) AppleWebKit/537.36 (KHTML, like Gecko) Chrome/116.0.0.0 Safari/537.36" etag="f2D0jaSBs8RVOzRb6Hhn" version="21.6.8" type="github" pages="3">
  <diagram name="SystemArchitecture" id="sRmaoOlEm64ONSSTu1jG">
    <mxGraphModel dx="2074" dy="1075" grid="1" gridSize="10" guides="1" tooltips="1" connect="1" arrows="1" fold="1" page="1" pageScale="1" pageWidth="827" pageHeight="1169" math="0" shadow="0">
      <root>
        <mxCell id="0" />
        <mxCell id="1" parent="0" />
        <mxCell id="OUOpVl2w9YC1eSG3vz17-2" value="" style="ellipse;shape=cloud;whiteSpace=wrap;html=1;fillColor=#ffe6cc;strokeColor=#d79b00;" parent="1" vertex="1">
          <mxGeometry x="149.5" y="80" width="135.5" height="110" as="geometry" />
        </mxCell>
        <mxCell id="91-crwCGvRFBWFTtSziR-1" value="&lt;b&gt;user (non EOA)&lt;/b&gt;" style="shape=umlActor;verticalLabelPosition=bottom;verticalAlign=top;html=1;outlineConnect=0;" parent="1" vertex="1">
          <mxGeometry x="40" y="205" width="30" height="60" as="geometry" />
        </mxCell>
        <mxCell id="91-crwCGvRFBWFTtSziR-2" value="" style="ellipse;shape=cloud;whiteSpace=wrap;html=1;fillColor=#dae8fc;strokeColor=#6c8ebf;" parent="1" vertex="1">
          <mxGeometry x="420" y="60" width="450" height="420" as="geometry" />
        </mxCell>
        <mxCell id="91-crwCGvRFBWFTtSziR-3" value="Blockchain Network" style="text;html=1;strokeColor=none;fillColor=none;align=center;verticalAlign=middle;whiteSpace=wrap;rounded=0;fontStyle=1;fontSize=15;" parent="1" vertex="1">
          <mxGeometry x="525" y="150" width="240" height="30" as="geometry" />
        </mxCell>
        <mxCell id="91-crwCGvRFBWFTtSziR-5" value="EntryPoint&lt;br&gt;Contract" style="rounded=0;whiteSpace=wrap;html=1;fontStyle=1;fillColor=#ffff88;strokeColor=#36393d;" parent="1" vertex="1">
          <mxGeometry x="501.5" y="205" width="120" height="60" as="geometry" />
        </mxCell>
        <mxCell id="91-crwCGvRFBWFTtSziR-6" value="SimpleAccount&lt;br&gt;Contract&lt;br&gt;(ContractWallet)" style="rounded=0;whiteSpace=wrap;html=1;fontStyle=1;fillColor=#ffff88;strokeColor=#36393d;" parent="1" vertex="1">
          <mxGeometry x="658.5" y="205" width="130" height="60" as="geometry" />
        </mxCell>
        <mxCell id="91-crwCGvRFBWFTtSziR-9" value="" style="endArrow=none;html=1;rounded=0;entryX=0;entryY=0.5;entryDx=0;entryDy=0;exitX=1;exitY=0.5;exitDx=0;exitDy=0;" parent="1" source="91-crwCGvRFBWFTtSziR-5" target="91-crwCGvRFBWFTtSziR-6" edge="1">
          <mxGeometry width="50" height="50" relative="1" as="geometry">
            <mxPoint x="610" y="270" as="sourcePoint" />
            <mxPoint x="647" y="230" as="targetPoint" />
          </mxGeometry>
        </mxCell>
        <mxCell id="91-crwCGvRFBWFTtSziR-10" value="frontend" style="rounded=0;whiteSpace=wrap;html=1;fontStyle=1;fillColor=#e1d5e7;strokeColor=#9673a6;" parent="1" vertex="1">
          <mxGeometry x="90" y="205" width="80" height="60" as="geometry" />
        </mxCell>
        <mxCell id="91-crwCGvRFBWFTtSziR-11" value="StackUp&#39;s&lt;br&gt;bundler" style="rounded=0;whiteSpace=wrap;html=1;fontStyle=1;fillColor=#d5e8d4;strokeColor=#82b366;" parent="1" vertex="1">
          <mxGeometry x="274.25" y="200" width="90" height="70" as="geometry" />
        </mxCell>
        <mxCell id="91-crwCGvRFBWFTtSziR-12" value="" style="endArrow=classic;html=1;rounded=0;exitX=1;exitY=0.5;exitDx=0;exitDy=0;entryX=0;entryY=0.5;entryDx=0;entryDy=0;" parent="1" source="91-crwCGvRFBWFTtSziR-11" target="91-crwCGvRFBWFTtSziR-5" edge="1">
          <mxGeometry width="50" height="50" relative="1" as="geometry">
            <mxPoint x="370" y="230" as="sourcePoint" />
            <mxPoint x="420" y="180" as="targetPoint" />
          </mxGeometry>
        </mxCell>
        <mxCell id="91-crwCGvRFBWFTtSziR-13" value="Okozukai Wallet&#39;s System Architecture" style="text;html=1;strokeColor=none;fillColor=none;align=center;verticalAlign=middle;whiteSpace=wrap;rounded=0;fontStyle=1;fontSize=21;" parent="1" vertex="1">
          <mxGeometry x="7.25" y="30" width="420" height="30" as="geometry" />
        </mxCell>
        <mxCell id="91-crwCGvRFBWFTtSziR-15" value="" style="endArrow=classic;html=1;rounded=0;exitX=1;exitY=0.5;exitDx=0;exitDy=0;" parent="1" edge="1">
          <mxGeometry width="50" height="50" relative="1" as="geometry">
            <mxPoint x="170" y="234.5" as="sourcePoint" />
            <mxPoint x="270" y="235" as="targetPoint" />
          </mxGeometry>
        </mxCell>
        <mxCell id="91-crwCGvRFBWFTtSziR-16" value="・tx send&lt;br&gt;・valivate tx" style="text;html=1;strokeColor=none;fillColor=none;align=left;verticalAlign=middle;whiteSpace=wrap;rounded=0;fontStyle=1;fontSize=15;" parent="1" vertex="1">
          <mxGeometry x="370" y="190" width="110" height="30" as="geometry" />
        </mxCell>
        <mxCell id="91-crwCGvRFBWFTtSziR-17" value="send user op&amp;nbsp;" style="text;html=1;strokeColor=none;fillColor=none;align=left;verticalAlign=middle;whiteSpace=wrap;rounded=0;fontStyle=1;fontSize=15;" parent="1" vertex="1">
          <mxGeometry x="175" y="200" width="110" height="30" as="geometry" />
        </mxCell>
        <mxCell id="91-crwCGvRFBWFTtSziR-19" value="&lt;b&gt;&lt;font style=&quot;font-size: 13px;&quot;&gt;The Graph&lt;/font&gt;&lt;/b&gt;" style="shape=cylinder3;whiteSpace=wrap;html=1;boundedLbl=1;backgroundOutline=1;size=15;fillColor=#f5f5f5;strokeColor=#666666;fontColor=#333333;" parent="1" vertex="1">
          <mxGeometry x="341.5" y="490" width="98.5" height="80" as="geometry" />
        </mxCell>
        <mxCell id="91-crwCGvRFBWFTtSziR-20" value="" style="endArrow=classic;html=1;rounded=0;exitX=0;exitY=0.5;exitDx=0;exitDy=0;exitPerimeter=0;entryX=1;entryY=0.5;entryDx=0;entryDy=0;" parent="1" source="91-crwCGvRFBWFTtSziR-19" target="cQ4cHVGCJj-G3HIqwV4h-3" edge="1">
          <mxGeometry width="50" height="50" relative="1" as="geometry">
            <mxPoint x="150" y="360" as="sourcePoint" />
            <mxPoint x="160" y="480" as="targetPoint" />
          </mxGeometry>
        </mxCell>
        <mxCell id="91-crwCGvRFBWFTtSziR-21" value="get data" style="text;html=1;strokeColor=none;fillColor=none;align=left;verticalAlign=middle;whiteSpace=wrap;rounded=0;fontStyle=1;fontSize=15;" parent="1" vertex="1">
          <mxGeometry x="210" y="530" width="90" height="30" as="geometry" />
        </mxCell>
        <mxCell id="91-crwCGvRFBWFTtSziR-23" value="indexed" style="text;html=1;strokeColor=none;fillColor=none;align=left;verticalAlign=middle;whiteSpace=wrap;rounded=0;fontStyle=1;fontSize=15;" parent="1" vertex="1">
          <mxGeometry x="506.5" y="450" width="110" height="30" as="geometry" />
        </mxCell>
        <mxCell id="D8Y7BRWgv8-24tozYhRP-1" value="factory&lt;br&gt;Manager" style="rounded=0;whiteSpace=wrap;html=1;fontStyle=1;fillColor=#ffff88;strokeColor=#36393d;" parent="1" vertex="1">
          <mxGeometry x="501.5" y="305" width="120" height="60" as="geometry" />
        </mxCell>
        <mxCell id="D8Y7BRWgv8-24tozYhRP-2" value="AccountFactory&lt;br&gt;Contract" style="rounded=0;whiteSpace=wrap;html=1;fontStyle=1;fillColor=#ffff88;strokeColor=#36393d;" parent="1" vertex="1">
          <mxGeometry x="659" y="305" width="125.5" height="60" as="geometry" />
        </mxCell>
        <mxCell id="D8Y7BRWgv8-24tozYhRP-3" value="" style="endArrow=classic;html=1;rounded=0;exitX=1;exitY=0.5;exitDx=0;exitDy=0;entryX=0;entryY=0.5;entryDx=0;entryDy=0;" parent="1" source="D8Y7BRWgv8-24tozYhRP-1" target="D8Y7BRWgv8-24tozYhRP-2" edge="1">
          <mxGeometry width="50" height="50" relative="1" as="geometry">
            <mxPoint x="374" y="245" as="sourcePoint" />
            <mxPoint x="512" y="245" as="targetPoint" />
          </mxGeometry>
        </mxCell>
        <mxCell id="D8Y7BRWgv8-24tozYhRP-4" value="" style="endArrow=classic;html=1;rounded=0;entryX=0.5;entryY=1;entryDx=0;entryDy=0;exitX=0.5;exitY=0;exitDx=0;exitDy=0;" parent="1" source="D8Y7BRWgv8-24tozYhRP-2" edge="1">
          <mxGeometry width="50" height="50" relative="1" as="geometry">
            <mxPoint x="719.6428571428571" y="305" as="sourcePoint" />
            <mxPoint x="722.5" y="265" as="targetPoint" />
          </mxGeometry>
        </mxCell>
        <mxCell id="cQ4cHVGCJj-G3HIqwV4h-1" value="&lt;span style=&quot;font-size: 13px;&quot;&gt;&lt;b&gt;Polybase&lt;/b&gt;&lt;/span&gt;" style="shape=cylinder3;whiteSpace=wrap;html=1;boundedLbl=1;backgroundOutline=1;size=15;fillColor=#f5f5f5;strokeColor=#666666;fontColor=#333333;" parent="1" vertex="1">
          <mxGeometry x="270" y="310" width="98.5" height="70" as="geometry" />
        </mxCell>
        <mxCell id="cQ4cHVGCJj-G3HIqwV4h-2" value="" style="endArrow=classic;html=1;rounded=0;exitX=0.5;exitY=1;exitDx=0;exitDy=0;entryX=1;entryY=0.5;entryDx=0;entryDy=0;entryPerimeter=0;" parent="1" source="D8Y7BRWgv8-24tozYhRP-1" target="91-crwCGvRFBWFTtSziR-19" edge="1">
          <mxGeometry width="50" height="50" relative="1" as="geometry">
            <mxPoint x="374" y="245" as="sourcePoint" />
            <mxPoint x="512" y="245" as="targetPoint" />
          </mxGeometry>
        </mxCell>
        <mxCell id="cQ4cHVGCJj-G3HIqwV4h-3" value="frontend" style="rounded=0;whiteSpace=wrap;html=1;fontStyle=1;fillColor=#e1d5e7;strokeColor=#9673a6;" parent="1" vertex="1">
          <mxGeometry x="90" y="500" width="80" height="60" as="geometry" />
        </mxCell>
        <mxCell id="cQ4cHVGCJj-G3HIqwV4h-4" value="&lt;b&gt;owner (EOA)&lt;/b&gt;" style="shape=umlActor;verticalLabelPosition=bottom;verticalAlign=top;html=1;outlineConnect=0;" parent="1" vertex="1">
          <mxGeometry x="40" y="500" width="30" height="60" as="geometry" />
        </mxCell>
        <mxCell id="cQ4cHVGCJj-G3HIqwV4h-5" value="Push&lt;br&gt;Protocol" style="rounded=1;whiteSpace=wrap;html=1;fontStyle=1;fontSize=14;fillColor=#ffcccc;strokeColor=#36393d;" parent="1" vertex="1">
          <mxGeometry x="269.5" y="420" width="100" height="50" as="geometry" />
        </mxCell>
        <mxCell id="cQ4cHVGCJj-G3HIqwV4h-7" value="" style="endArrow=classic;html=1;rounded=0;exitX=1;exitY=0.5;exitDx=0;exitDy=0;entryX=0;entryY=0.5;entryDx=0;entryDy=0;entryPerimeter=0;edgeStyle=orthogonalEdgeStyle;" parent="1" source="91-crwCGvRFBWFTtSziR-10" target="cQ4cHVGCJj-G3HIqwV4h-1" edge="1">
          <mxGeometry width="50" height="50" relative="1" as="geometry">
            <mxPoint x="180" y="244.5" as="sourcePoint" />
            <mxPoint x="280" y="245" as="targetPoint" />
          </mxGeometry>
        </mxCell>
        <mxCell id="cQ4cHVGCJj-G3HIqwV4h-8" value="" style="endArrow=classic;html=1;rounded=0;exitX=1;exitY=0.5;exitDx=0;exitDy=0;entryX=0;entryY=0.5;entryDx=0;entryDy=0;edgeStyle=orthogonalEdgeStyle;" parent="1" source="91-crwCGvRFBWFTtSziR-10" target="cQ4cHVGCJj-G3HIqwV4h-5" edge="1">
          <mxGeometry width="50" height="50" relative="1" as="geometry">
            <mxPoint x="150" y="299.5" as="sourcePoint" />
            <mxPoint x="240" y="373" as="targetPoint" />
          </mxGeometry>
        </mxCell>
        <mxCell id="cQ4cHVGCJj-G3HIqwV4h-9" value="register tx infos" style="text;html=1;strokeColor=none;fillColor=none;align=left;verticalAlign=middle;whiteSpace=wrap;rounded=0;fontStyle=1;fontSize=15;" parent="1" vertex="1">
          <mxGeometry x="231.5" y="275" width="138.5" height="30" as="geometry" />
        </mxCell>
        <mxCell id="cQ4cHVGCJj-G3HIqwV4h-10" value="notificate receipt infos." style="text;html=1;strokeColor=none;fillColor=none;align=left;verticalAlign=middle;whiteSpace=wrap;rounded=0;fontStyle=1;fontSize=15;" parent="1" vertex="1">
          <mxGeometry x="231.5" y="380" width="178.5" height="30" as="geometry" />
        </mxCell>
        <mxCell id="OUOpVl2w9YC1eSG3vz17-1" value="" style="image;html=1;image=img/lib/clip_art/general/Keys_128x128.png" parent="1" vertex="1">
          <mxGeometry x="188.75" y="130" width="60" height="60" as="geometry" />
        </mxCell>
        <mxCell id="OUOpVl2w9YC1eSG3vz17-3" value="Lit Protocol" style="text;html=1;strokeColor=none;fillColor=none;align=center;verticalAlign=middle;whiteSpace=wrap;rounded=0;fontStyle=1;fontSize=15;" parent="1" vertex="1">
          <mxGeometry x="165" y="100" width="108.5" height="30" as="geometry" />
        </mxCell>
        <mxCell id="OUOpVl2w9YC1eSG3vz17-4" value="" style="endArrow=classic;html=1;rounded=0;exitX=0.931;exitY=1.067;exitDx=0;exitDy=0;entryX=0.5;entryY=0;entryDx=0;entryDy=0;edgeStyle=orthogonalEdgeStyle;exitPerimeter=0;" parent="1" source="OUOpVl2w9YC1eSG3vz17-3" target="91-crwCGvRFBWFTtSziR-11" edge="1">
          <mxGeometry width="50" height="50" relative="1" as="geometry">
            <mxPoint x="285" y="130" as="sourcePoint" />
            <mxPoint x="385" y="340" as="targetPoint" />
          </mxGeometry>
        </mxCell>
        <mxCell id="OUOpVl2w9YC1eSG3vz17-5" value="&lt;ul style=&quot;box-sizing: border-box; border-width: 0px; border-style: solid; border-color: currentcolor; --tw-border-spacing-x: 0; --tw-border-spacing-y: 0; --tw-translate-x: 0; --tw-translate-y: 0; --tw-rotate: 0; --tw-skew-x: 0; --tw-skew-y: 0; --tw-scale-x: 1; --tw-scale-y: 1; --tw-pan-x: ; --tw-pan-y: ; --tw-pinch-zoom: ; --tw-scroll-snap-strictness: proximity; --tw-gradient-from-position: ; --tw-gradient-via-position: ; --tw-gradient-to-position: ; --tw-ordinal: ; --tw-slashed-zero: ; --tw-numeric-figure: ; --tw-numeric-spacing: ; --tw-numeric-fraction: ; --tw-ring-inset: ; --tw-ring-offset-width: 0px; --tw-ring-offset-color: #fff; --tw-ring-color: rgb(0 125 178 / 0.5); --tw-ring-offset-shadow: 0 0 #0000; --tw-ring-shadow: 0 0 #0000; --tw-shadow: 0 0 #0000; --tw-shadow-colored: 0 0 #0000; --tw-blur: ; --tw-brightness: ; --tw-contrast: ; --tw-grayscale: ; --tw-hue-rotate: ; --tw-invert: ; --tw-saturate: ; --tw-sepia: ; --tw-drop-shadow: ; --tw-backdrop-blur: ; --tw-backdrop-brightness: ; --tw-backdrop-contrast: ; --tw-backdrop-grayscale: ; --tw-backdrop-hue-rotate: ; --tw-backdrop-invert: ; --tw-backdrop-opacity: ; --tw-backdrop-saturate: ; --tw-backdrop-sepia: ; list-style: none; margin: 0px; padding: 0px; font-family: -apple-system, &amp;quot;system-ui&amp;quot;, &amp;quot;Segoe UI&amp;quot;, Roboto, Helvetica, Arial, sans-serif; color: rgb(27, 30, 37); background-color: rgb(255, 255, 255);&quot; aria-labelledby=&quot;alternatives-heading&quot;&gt;&lt;li style=&quot;box-sizing: border-box; border-width: 0px; border-style: solid; border-color: currentcolor; --tw-border-spacing-x: 0; --tw-border-spacing-y: 0; --tw-translate-x: 0; --tw-translate-y: 0; --tw-rotate: 0; --tw-skew-x: 0; --tw-skew-y: 0; --tw-scale-x: 1; --tw-scale-y: 1; --tw-pan-x: ; --tw-pan-y: ; --tw-pinch-zoom: ; --tw-scroll-snap-strictness: proximity; --tw-gradient-from-position: ; --tw-gradient-via-position: ; --tw-gradient-to-position: ; --tw-ordinal: ; --tw-slashed-zero: ; --tw-numeric-figure: ; --tw-numeric-spacing: ; --tw-numeric-fraction: ; --tw-ring-inset: ; --tw-ring-offset-width: 0px; --tw-ring-offset-color: #fff; --tw-ring-color: rgb(0 125 178 / 0.5); --tw-ring-offset-shadow: 0 0 #0000; --tw-ring-shadow: 0 0 #0000; --tw-shadow: 0 0 #0000; --tw-shadow-colored: 0 0 #0000; --tw-blur: ; --tw-brightness: ; --tw-contrast: ; --tw-grayscale: ; --tw-hue-rotate: ; --tw-invert: ; --tw-saturate: ; --tw-sepia: ; --tw-drop-shadow: ; --tw-backdrop-blur: ; --tw-backdrop-brightness: ; --tw-backdrop-contrast: ; --tw-backdrop-grayscale: ; --tw-backdrop-hue-rotate: ; --tw-backdrop-invert: ; --tw-backdrop-opacity: ; --tw-backdrop-saturate: ; --tw-backdrop-sepia: ; padding-left: 15px; padding-right: 40px; margin-left: -15px; margin-right: -40px; pointer-events: initial; cursor: initial; font-family: -apple-system, BlinkMacSystemFont, &amp;quot;Segoe UI&amp;quot;, Roboto, Helvetica, Arial, sans-serif; list-style-type: none;&quot; data-testid=&quot;translator-target-result-as-text-entry&quot; class=&quot;lmt__translations_as_text__item&quot;&gt;&lt;button style=&quot;border-width: initial; border-style: none; border-color: initial; --tw-border-spacing-x: 0; --tw-border-spacing-y: 0; --tw-translate-x: 0; --tw-translate-y: 0; --tw-rotate: 0; --tw-skew-x: 0; --tw-skew-y: 0; --tw-scale-x: 1; --tw-scale-y: 1; --tw-pan-x: ; --tw-pan-y: ; --tw-pinch-zoom: ; --tw-scroll-snap-strictness: proximity; --tw-gradient-from-position: ; --tw-gradient-via-position: ; --tw-gradient-to-position: ; --tw-ordinal: ; --tw-slashed-zero: ; --tw-numeric-figure: ; --tw-numeric-spacing: ; --tw-numeric-fraction: ; --tw-ring-inset: ; --tw-ring-offset-width: 0px; --tw-ring-offset-color: #fff; --tw-ring-color: rgb(0 125 178 / 0.5); --tw-ring-offset-shadow: 0 0 #0000; --tw-ring-shadow: 0 0 #0000; --tw-shadow: 0 0 #0000; --tw-shadow-colored: 0 0 #0000; --tw-blur: ; --tw-brightness: ; --tw-contrast: ; --tw-grayscale: ; --tw-hue-rotate: ; --tw-invert: ; --tw-saturate: ; --tw-sepia: ; --tw-drop-shadow: ; --tw-backdrop-blur: ; --tw-backdrop-brightness: ; --tw-backdrop-contrast: ; --tw-backdrop-grayscale: ; --tw-backdrop-hue-rotate: ; --tw-backdrop-invert: ; --tw-backdrop-opacity: ; --tw-backdrop-saturate: ; --tw-backdrop-sepia: ; font-family: -apple-system, BlinkMacSystemFont, &amp;quot;Segoe UI&amp;quot;, Roboto, Helvetica, Arial, sans-serif; line-height: inherit; color: rgb(0, 0, 0); margin: 0px; padding: 0px; appearance: button; background-color: rgba(0, 0, 0, 0); cursor: pointer; text-align: left; pointer-events: initial;&quot; aria-description=&quot;クリックして適用します&quot; lang=&quot;en-US&quot; class=&quot;lmt__translations_as_text__text_btn&quot;&gt;&lt;b style=&quot;&quot;&gt;&lt;font style=&quot;font-size: 14px;&quot;&gt;Encrypted&amp;nbsp;&lt;/font&gt;&lt;/b&gt;&lt;/button&gt;&lt;/li&gt;&lt;li style=&quot;box-sizing: border-box; border-width: 0px; border-style: solid; border-color: currentcolor; --tw-border-spacing-x: 0; --tw-border-spacing-y: 0; --tw-translate-x: 0; --tw-translate-y: 0; --tw-rotate: 0; --tw-skew-x: 0; --tw-skew-y: 0; --tw-scale-x: 1; --tw-scale-y: 1; --tw-pan-x: ; --tw-pan-y: ; --tw-pinch-zoom: ; --tw-scroll-snap-strictness: proximity; --tw-gradient-from-position: ; --tw-gradient-via-position: ; --tw-gradient-to-position: ; --tw-ordinal: ; --tw-slashed-zero: ; --tw-numeric-figure: ; --tw-numeric-spacing: ; --tw-numeric-fraction: ; --tw-ring-inset: ; --tw-ring-offset-width: 0px; --tw-ring-offset-color: #fff; --tw-ring-color: rgb(0 125 178 / 0.5); --tw-ring-offset-shadow: 0 0 #0000; --tw-ring-shadow: 0 0 #0000; --tw-shadow: 0 0 #0000; --tw-shadow-colored: 0 0 #0000; --tw-blur: ; --tw-brightness: ; --tw-contrast: ; --tw-grayscale: ; --tw-hue-rotate: ; --tw-invert: ; --tw-saturate: ; --tw-sepia: ; --tw-drop-shadow: ; --tw-backdrop-blur: ; --tw-backdrop-brightness: ; --tw-backdrop-contrast: ; --tw-backdrop-grayscale: ; --tw-backdrop-hue-rotate: ; --tw-backdrop-invert: ; --tw-backdrop-opacity: ; --tw-backdrop-saturate: ; --tw-backdrop-sepia: ; padding-left: 15px; padding-right: 40px; margin-left: -15px; margin-right: -40px; pointer-events: initial; cursor: initial; font-family: -apple-system, BlinkMacSystemFont, &amp;quot;Segoe UI&amp;quot;, Roboto, Helvetica, Arial, sans-serif; list-style-type: none;&quot; data-testid=&quot;translator-target-result-as-text-entry&quot; class=&quot;lmt__translations_as_text__item&quot;&gt;&lt;button style=&quot;border-width: initial; border-style: none; border-color: initial; --tw-border-spacing-x: 0; --tw-border-spacing-y: 0; --tw-translate-x: 0; --tw-translate-y: 0; --tw-rotate: 0; --tw-skew-x: 0; --tw-skew-y: 0; --tw-scale-x: 1; --tw-scale-y: 1; --tw-pan-x: ; --tw-pan-y: ; --tw-pinch-zoom: ; --tw-scroll-snap-strictness: proximity; --tw-gradient-from-position: ; --tw-gradient-via-position: ; --tw-gradient-to-position: ; --tw-ordinal: ; --tw-slashed-zero: ; --tw-numeric-figure: ; --tw-numeric-spacing: ; --tw-numeric-fraction: ; --tw-ring-inset: ; --tw-ring-offset-width: 0px; --tw-ring-offset-color: #fff; --tw-ring-color: rgb(0 125 178 / 0.5); --tw-ring-offset-shadow: 0 0 #0000; --tw-ring-shadow: 0 0 #0000; --tw-shadow: 0 0 #0000; --tw-shadow-colored: 0 0 #0000; --tw-blur: ; --tw-brightness: ; --tw-contrast: ; --tw-grayscale: ; --tw-hue-rotate: ; --tw-invert: ; --tw-saturate: ; --tw-sepia: ; --tw-drop-shadow: ; --tw-backdrop-blur: ; --tw-backdrop-brightness: ; --tw-backdrop-contrast: ; --tw-backdrop-grayscale: ; --tw-backdrop-hue-rotate: ; --tw-backdrop-invert: ; --tw-backdrop-opacity: ; --tw-backdrop-saturate: ; --tw-backdrop-sepia: ; font-family: -apple-system, BlinkMacSystemFont, &amp;quot;Segoe UI&amp;quot;, Roboto, Helvetica, Arial, sans-serif; line-height: inherit; color: rgb(0, 0, 0); margin: 0px; padding: 0px; appearance: button; background-color: rgba(0, 0, 0, 0); cursor: pointer; text-align: left; pointer-events: initial;&quot; aria-description=&quot;クリックして適用します&quot; lang=&quot;en-US&quot; class=&quot;lmt__translations_as_text__text_btn&quot;&gt;&lt;b style=&quot;&quot;&gt;&lt;font style=&quot;font-size: 14px;&quot;&gt;and stored&lt;/font&gt;&lt;/b&gt;&lt;/button&gt;&lt;/li&gt;&lt;/ul&gt;" style="text;html=1;strokeColor=none;fillColor=none;align=left;verticalAlign=middle;whiteSpace=wrap;rounded=0;fontStyle=1;fontSize=15;" parent="1" vertex="1">
          <mxGeometry x="329" y="110" width="85" height="30" as="geometry" />
        </mxCell>
      </root>
    </mxGraphModel>
  </diagram>
  <diagram id="BOmJaI9yQNsl0PyGM7c5" name="Contract&#39;s System Architecture">
    <mxGraphModel dx="1981" dy="980" grid="1" gridSize="10" guides="1" tooltips="1" connect="1" arrows="1" fold="1" page="1" pageScale="1" pageWidth="827" pageHeight="1169" math="0" shadow="0">
      <root>
        <mxCell id="0" />
        <mxCell id="1" parent="0" />
        <mxCell id="ASCxLfbmkE4BrLPHF1e9-1" value="Contract&lt;br&gt;Wallet" style="rounded=0;whiteSpace=wrap;html=1;fillColor=#dae8fc;strokeColor=#6c8ebf;" parent="1" vertex="1">
          <mxGeometry x="490" y="150" width="80" height="60" as="geometry" />
        </mxCell>
        <mxCell id="ASCxLfbmkE4BrLPHF1e9-2" value="Contract&lt;br style=&quot;border-color: var(--border-color);&quot;&gt;Wallet" style="rounded=0;whiteSpace=wrap;html=1;fillColor=#dae8fc;strokeColor=#6c8ebf;" parent="1" vertex="1">
          <mxGeometry x="490" y="260" width="80" height="60" as="geometry" />
        </mxCell>
        <mxCell id="ASCxLfbmkE4BrLPHF1e9-3" value="Contract&lt;br style=&quot;border-color: var(--border-color);&quot;&gt;Wallet" style="rounded=0;whiteSpace=wrap;html=1;fillColor=#dae8fc;strokeColor=#6c8ebf;" parent="1" vertex="1">
          <mxGeometry x="490" y="370" width="80" height="60" as="geometry" />
        </mxCell>
        <mxCell id="ASCxLfbmkE4BrLPHF1e9-8" value="" style="endArrow=classic;html=1;rounded=0;entryX=0;entryY=0.5;entryDx=0;entryDy=0;exitX=1;exitY=0.5;exitDx=0;exitDy=0;" parent="1" source="QrGFp-70WqibgNLx-JXD-1" target="ASCxLfbmkE4BrLPHF1e9-2" edge="1">
          <mxGeometry width="50" height="50" relative="1" as="geometry">
            <mxPoint x="180" y="290" as="sourcePoint" />
            <mxPoint x="290" y="290" as="targetPoint" />
          </mxGeometry>
        </mxCell>
        <mxCell id="ASCxLfbmkE4BrLPHF1e9-9" value="" style="endArrow=classic;html=1;rounded=0;entryX=0;entryY=0.5;entryDx=0;entryDy=0;exitX=1;exitY=0.5;exitDx=0;exitDy=0;edgeStyle=orthogonalEdgeStyle;" parent="1" source="QrGFp-70WqibgNLx-JXD-1" target="ASCxLfbmkE4BrLPHF1e9-1" edge="1">
          <mxGeometry width="50" height="50" relative="1" as="geometry">
            <mxPoint x="180" y="290" as="sourcePoint" />
            <mxPoint x="290" y="180" as="targetPoint" />
          </mxGeometry>
        </mxCell>
        <mxCell id="ASCxLfbmkE4BrLPHF1e9-10" value="" style="endArrow=classic;html=1;rounded=0;edgeStyle=orthogonalEdgeStyle;entryX=0;entryY=0.5;entryDx=0;entryDy=0;" parent="1" target="ASCxLfbmkE4BrLPHF1e9-3" edge="1" source="QrGFp-70WqibgNLx-JXD-1">
          <mxGeometry width="50" height="50" relative="1" as="geometry">
            <mxPoint x="190" y="300" as="sourcePoint" />
            <mxPoint x="290" y="400" as="targetPoint" />
          </mxGeometry>
        </mxCell>
        <mxCell id="Rxmj9WsjUdsU_FUsIxhb-1" value="Contract Layer&#39;s System Architecture" style="text;html=1;strokeColor=none;fillColor=none;align=center;verticalAlign=middle;whiteSpace=wrap;rounded=0;fontStyle=1;fontSize=21;" parent="1" vertex="1">
          <mxGeometry x="50" y="60" width="420" height="30" as="geometry" />
        </mxCell>
        <mxCell id="Rxmj9WsjUdsU_FUsIxhb-2" value="1 user&lt;br style=&quot;font-size: 14px;&quot;&gt;1 Contract Wallet" style="shape=callout;whiteSpace=wrap;html=1;perimeter=calloutPerimeter;position2=0.17;fontSize=14;fontStyle=1" parent="1" vertex="1">
          <mxGeometry x="570" y="80" width="130" height="80" as="geometry" />
        </mxCell>
        <mxCell id="QrGFp-70WqibgNLx-JXD-1" value="Account&lt;br&gt;Factory" style="rounded=0;whiteSpace=wrap;html=1;fillColor=#f8cecc;strokeColor=#b85450;" vertex="1" parent="1">
          <mxGeometry x="210" y="260" width="80" height="60" as="geometry" />
        </mxCell>
        <mxCell id="QrGFp-70WqibgNLx-JXD-3" value="factory has&lt;br&gt;N wallets" style="shape=callout;whiteSpace=wrap;html=1;perimeter=calloutPerimeter;position2=0.77;fontSize=14;fontStyle=1;size=40;position=0.54;" vertex="1" parent="1">
          <mxGeometry x="130" y="160" width="130" height="90" as="geometry" />
        </mxCell>
      </root>
    </mxGraphModel>
  </diagram>
  <diagram id="sg_hOwF9fdU56c28gc02" name="onemorethon">
    <mxGraphModel dx="2901" dy="1075" grid="1" gridSize="10" guides="1" tooltips="1" connect="1" arrows="1" fold="1" page="1" pageScale="1" pageWidth="827" pageHeight="1169" math="0" shadow="0">
      <root>
        <mxCell id="0" />
        <mxCell id="1" parent="0" />
        <mxCell id="nYSK4yrnI28_zjZrsVCT-2" value="&lt;b&gt;user (non EOA)&lt;/b&gt;" style="shape=umlActor;verticalLabelPosition=bottom;verticalAlign=top;html=1;outlineConnect=0;" parent="1" vertex="1">
          <mxGeometry x="-90" y="205" width="30" height="60" as="geometry" />
        </mxCell>
        <mxCell id="nYSK4yrnI28_zjZrsVCT-3" value="" style="ellipse;shape=cloud;whiteSpace=wrap;html=1;fillColor=#dae8fc;strokeColor=#6c8ebf;" parent="1" vertex="1">
          <mxGeometry x="420" y="60" width="450" height="420" as="geometry" />
        </mxCell>
        <mxCell id="nYSK4yrnI28_zjZrsVCT-4" value="Blockchain Network" style="text;html=1;strokeColor=none;fillColor=none;align=center;verticalAlign=middle;whiteSpace=wrap;rounded=0;fontStyle=1;fontSize=15;" parent="1" vertex="1">
          <mxGeometry x="525" y="150" width="240" height="30" as="geometry" />
        </mxCell>
        <mxCell id="nYSK4yrnI28_zjZrsVCT-5" value="EntryPoint&lt;br&gt;Contract" style="rounded=0;whiteSpace=wrap;html=1;fontStyle=1;fillColor=#ffff88;strokeColor=#36393d;" parent="1" vertex="1">
          <mxGeometry x="501.5" y="205" width="120" height="60" as="geometry" />
        </mxCell>
        <mxCell id="nYSK4yrnI28_zjZrsVCT-6" value="SimpleAccount&lt;br&gt;Contract&lt;br&gt;(ContractWallet)" style="rounded=0;whiteSpace=wrap;html=1;fontStyle=1;fillColor=#ffff88;strokeColor=#36393d;" parent="1" vertex="1">
          <mxGeometry x="658.5" y="205" width="130" height="60" as="geometry" />
        </mxCell>
        <mxCell id="nYSK4yrnI28_zjZrsVCT-7" value="" style="endArrow=none;html=1;rounded=0;entryX=0;entryY=0.5;entryDx=0;entryDy=0;exitX=1;exitY=0.5;exitDx=0;exitDy=0;" parent="1" source="nYSK4yrnI28_zjZrsVCT-5" target="nYSK4yrnI28_zjZrsVCT-6" edge="1">
          <mxGeometry width="50" height="50" relative="1" as="geometry">
            <mxPoint x="610" y="270" as="sourcePoint" />
            <mxPoint x="647" y="230" as="targetPoint" />
          </mxGeometry>
        </mxCell>
        <mxCell id="nYSK4yrnI28_zjZrsVCT-8" value="frontend" style="rounded=0;whiteSpace=wrap;html=1;fontStyle=1;fillColor=#e1d5e7;strokeColor=#9673a6;" parent="1" vertex="1">
          <mxGeometry x="-40" y="205" width="80" height="60" as="geometry" />
        </mxCell>
        <mxCell id="nYSK4yrnI28_zjZrsVCT-9" value="StackUp&#39;s&lt;br&gt;bundler" style="rounded=0;whiteSpace=wrap;html=1;fontStyle=1;fillColor=#d5e8d4;strokeColor=#82b366;" parent="1" vertex="1">
          <mxGeometry x="274.25" y="200" width="90" height="70" as="geometry" />
        </mxCell>
        <mxCell id="nYSK4yrnI28_zjZrsVCT-10" value="" style="endArrow=classic;html=1;rounded=0;exitX=1;exitY=0.5;exitDx=0;exitDy=0;entryX=0;entryY=0.5;entryDx=0;entryDy=0;" parent="1" source="nYSK4yrnI28_zjZrsVCT-9" target="nYSK4yrnI28_zjZrsVCT-5" edge="1">
          <mxGeometry width="50" height="50" relative="1" as="geometry">
            <mxPoint x="370" y="230" as="sourcePoint" />
            <mxPoint x="420" y="180" as="targetPoint" />
          </mxGeometry>
        </mxCell>
        <mxCell id="nYSK4yrnI28_zjZrsVCT-11" value="Okozukai Wallet&#39;s System Architecture" style="text;html=1;strokeColor=none;fillColor=none;align=center;verticalAlign=middle;whiteSpace=wrap;rounded=0;fontStyle=1;fontSize=21;" parent="1" vertex="1">
          <mxGeometry x="-140" y="30" width="420" height="30" as="geometry" />
        </mxCell>
        <mxCell id="nYSK4yrnI28_zjZrsVCT-12" value="" style="endArrow=classic;html=1;rounded=0;" parent="1" edge="1">
          <mxGeometry width="50" height="50" relative="1" as="geometry">
            <mxPoint x="40" y="235" as="sourcePoint" />
            <mxPoint x="270" y="235" as="targetPoint" />
          </mxGeometry>
        </mxCell>
        <mxCell id="nYSK4yrnI28_zjZrsVCT-13" value="・tx send&lt;br&gt;・valivate tx" style="text;html=1;strokeColor=none;fillColor=none;align=left;verticalAlign=middle;whiteSpace=wrap;rounded=0;fontStyle=1;fontSize=15;" parent="1" vertex="1">
          <mxGeometry x="370" y="190" width="110" height="30" as="geometry" />
        </mxCell>
        <mxCell id="nYSK4yrnI28_zjZrsVCT-14" value="send user op&amp;nbsp;" style="text;html=1;strokeColor=none;fillColor=none;align=left;verticalAlign=middle;whiteSpace=wrap;rounded=0;fontStyle=1;fontSize=15;" parent="1" vertex="1">
          <mxGeometry x="175" y="200" width="110" height="30" as="geometry" />
        </mxCell>
        <mxCell id="nYSK4yrnI28_zjZrsVCT-15" value="&lt;b&gt;&lt;font style=&quot;font-size: 13px;&quot;&gt;The Graph&lt;/font&gt;&lt;/b&gt;" style="shape=cylinder3;whiteSpace=wrap;html=1;boundedLbl=1;backgroundOutline=1;size=15;fillColor=#f5f5f5;strokeColor=#666666;fontColor=#333333;" parent="1" vertex="1">
          <mxGeometry x="341.5" y="490" width="98.5" height="80" as="geometry" />
        </mxCell>
        <mxCell id="nYSK4yrnI28_zjZrsVCT-16" value="" style="endArrow=classic;html=1;rounded=0;exitX=0;exitY=0.5;exitDx=0;exitDy=0;exitPerimeter=0;entryX=1;entryY=0.5;entryDx=0;entryDy=0;" parent="1" source="nYSK4yrnI28_zjZrsVCT-15" target="nYSK4yrnI28_zjZrsVCT-25" edge="1">
          <mxGeometry width="50" height="50" relative="1" as="geometry">
            <mxPoint x="150" y="360" as="sourcePoint" />
            <mxPoint x="160" y="480" as="targetPoint" />
          </mxGeometry>
        </mxCell>
        <mxCell id="nYSK4yrnI28_zjZrsVCT-17" value="get data" style="text;html=1;strokeColor=none;fillColor=none;align=left;verticalAlign=middle;whiteSpace=wrap;rounded=0;fontStyle=1;fontSize=15;" parent="1" vertex="1">
          <mxGeometry x="210" y="530" width="90" height="30" as="geometry" />
        </mxCell>
        <mxCell id="nYSK4yrnI28_zjZrsVCT-18" value="indexed" style="text;html=1;strokeColor=none;fillColor=none;align=left;verticalAlign=middle;whiteSpace=wrap;rounded=0;fontStyle=1;fontSize=15;" parent="1" vertex="1">
          <mxGeometry x="525" y="460" width="75" height="30" as="geometry" />
        </mxCell>
        <mxCell id="nYSK4yrnI28_zjZrsVCT-20" value="AccountFactory&lt;br&gt;Contract" style="rounded=0;whiteSpace=wrap;html=1;fontStyle=1;fillColor=#ffff88;strokeColor=#36393d;" parent="1" vertex="1">
          <mxGeometry x="659" y="305" width="125.5" height="60" as="geometry" />
        </mxCell>
        <mxCell id="nYSK4yrnI28_zjZrsVCT-22" value="" style="endArrow=classic;html=1;rounded=0;entryX=0.5;entryY=1;entryDx=0;entryDy=0;exitX=0.5;exitY=0;exitDx=0;exitDy=0;" parent="1" source="nYSK4yrnI28_zjZrsVCT-20" edge="1">
          <mxGeometry width="50" height="50" relative="1" as="geometry">
            <mxPoint x="719.6428571428571" y="305" as="sourcePoint" />
            <mxPoint x="722.5" y="265" as="targetPoint" />
          </mxGeometry>
        </mxCell>
        <mxCell id="nYSK4yrnI28_zjZrsVCT-23" value="&lt;span style=&quot;font-size: 13px;&quot;&gt;&lt;b&gt;Polybase&lt;/b&gt;&lt;/span&gt;" style="shape=cylinder3;whiteSpace=wrap;html=1;boundedLbl=1;backgroundOutline=1;size=15;fillColor=#f5f5f5;strokeColor=#666666;fontColor=#333333;" parent="1" vertex="1">
          <mxGeometry x="270" y="310" width="98.5" height="70" as="geometry" />
        </mxCell>
        <mxCell id="nYSK4yrnI28_zjZrsVCT-24" value="" style="endArrow=classic;html=1;rounded=0;exitX=0;exitY=0.5;exitDx=0;exitDy=0;entryX=1;entryY=0.5;entryDx=0;entryDy=0;entryPerimeter=0;" parent="1" source="nYSK4yrnI28_zjZrsVCT-20" target="nYSK4yrnI28_zjZrsVCT-15" edge="1">
          <mxGeometry width="50" height="50" relative="1" as="geometry">
            <mxPoint x="561.5" y="365" as="sourcePoint" />
            <mxPoint x="512" y="245" as="targetPoint" />
          </mxGeometry>
        </mxCell>
        <mxCell id="nYSK4yrnI28_zjZrsVCT-25" value="frontend" style="rounded=0;whiteSpace=wrap;html=1;fontStyle=1;fillColor=#e1d5e7;strokeColor=#9673a6;" parent="1" vertex="1">
          <mxGeometry x="90" y="500" width="80" height="60" as="geometry" />
        </mxCell>
        <mxCell id="nYSK4yrnI28_zjZrsVCT-26" value="&lt;b&gt;owner (EOA)&lt;/b&gt;" style="shape=umlActor;verticalLabelPosition=bottom;verticalAlign=top;html=1;outlineConnect=0;" parent="1" vertex="1">
          <mxGeometry x="40" y="500" width="30" height="60" as="geometry" />
        </mxCell>
        <mxCell id="nYSK4yrnI28_zjZrsVCT-27" value="Push&lt;br&gt;Protocol" style="rounded=1;whiteSpace=wrap;html=1;fontStyle=1;fontSize=14;fillColor=#ffcccc;strokeColor=#36393d;" parent="1" vertex="1">
          <mxGeometry x="269.5" y="420" width="100" height="50" as="geometry" />
        </mxCell>
        <mxCell id="nYSK4yrnI28_zjZrsVCT-28" value="" style="endArrow=classic;html=1;rounded=0;exitX=1;exitY=0.5;exitDx=0;exitDy=0;entryX=0;entryY=0.5;entryDx=0;entryDy=0;entryPerimeter=0;edgeStyle=orthogonalEdgeStyle;" parent="1" source="nYSK4yrnI28_zjZrsVCT-8" target="nYSK4yrnI28_zjZrsVCT-23" edge="1">
          <mxGeometry width="50" height="50" relative="1" as="geometry">
            <mxPoint x="180" y="244.5" as="sourcePoint" />
            <mxPoint x="280" y="245" as="targetPoint" />
            <Array as="points">
              <mxPoint x="120" y="235" />
              <mxPoint x="120" y="345" />
            </Array>
          </mxGeometry>
        </mxCell>
        <mxCell id="nYSK4yrnI28_zjZrsVCT-29" value="" style="endArrow=classic;html=1;rounded=0;exitX=1;exitY=0.5;exitDx=0;exitDy=0;entryX=0;entryY=0.5;entryDx=0;entryDy=0;edgeStyle=orthogonalEdgeStyle;" parent="1" source="nYSK4yrnI28_zjZrsVCT-36" target="nYSK4yrnI28_zjZrsVCT-27" edge="1">
          <mxGeometry width="50" height="50" relative="1" as="geometry">
            <mxPoint x="150" y="299.5" as="sourcePoint" />
            <mxPoint x="240" y="373" as="targetPoint" />
            <Array as="points">
              <mxPoint x="120" y="235" />
              <mxPoint x="120" y="445" />
            </Array>
          </mxGeometry>
        </mxCell>
        <mxCell id="nYSK4yrnI28_zjZrsVCT-30" value="register tx infos" style="text;html=1;strokeColor=none;fillColor=none;align=left;verticalAlign=middle;whiteSpace=wrap;rounded=0;fontStyle=1;fontSize=15;" parent="1" vertex="1">
          <mxGeometry x="231.5" y="275" width="138.5" height="30" as="geometry" />
        </mxCell>
        <mxCell id="nYSK4yrnI28_zjZrsVCT-31" value="notificate receipt infos." style="text;html=1;strokeColor=none;fillColor=none;align=left;verticalAlign=middle;whiteSpace=wrap;rounded=0;fontStyle=1;fontSize=15;" parent="1" vertex="1">
          <mxGeometry x="231.5" y="380" width="178.5" height="30" as="geometry" />
        </mxCell>
        <mxCell id="nYSK4yrnI28_zjZrsVCT-37" value="" style="endArrow=classic;html=1;rounded=0;exitX=1;exitY=0.5;exitDx=0;exitDy=0;entryX=0;entryY=0.5;entryDx=0;entryDy=0;edgeStyle=orthogonalEdgeStyle;" parent="1" source="nYSK4yrnI28_zjZrsVCT-8" target="nYSK4yrnI28_zjZrsVCT-36" edge="1">
          <mxGeometry width="50" height="50" relative="1" as="geometry">
            <mxPoint x="40" y="235" as="sourcePoint" />
            <mxPoint x="270" y="445" as="targetPoint" />
          </mxGeometry>
        </mxCell>
        <mxCell id="nYSK4yrnI28_zjZrsVCT-36" value="Web3&lt;br&gt;Auth" style="ellipse;whiteSpace=wrap;html=1;aspect=fixed;fillColor=#1ba1e2;fontColor=#ffffff;strokeColor=#006EAF;" parent="1" vertex="1">
          <mxGeometry x="90" y="200" width="70" height="70" as="geometry" />
        </mxCell>
        <mxCell id="nYSK4yrnI28_zjZrsVCT-38" value="Sign in / up&lt;br&gt;(create Contract Wallet)" style="text;html=1;strokeColor=none;fillColor=none;align=left;verticalAlign=middle;whiteSpace=wrap;rounded=0;fontStyle=1;fontSize=15;" parent="1" vertex="1">
          <mxGeometry y="150" width="210" height="30" as="geometry" />
        </mxCell>
      </root>
    </mxGraphModel>
  </diagram>
</mxfile>
